<?xml version="1.0" encoding="utf-8"?>
<!-- Generator: Adobe Illustrator 24.3.0, SVG Export Plug-In . SVG Version: 6.00 Build 0)  -->
<svg version="1.1" id="레이어_1" xmlns="http://www.w3.org/2000/svg" xmlns:xlink="http://www.w3.org/1999/xlink" x="0px"
	 y="0px" viewBox="0 0 1153.4 88.9" style="enable-background:new 0 0 1153.4 88.9;" xml:space="preserve">
<style type="text/css">
	.st0{fill:#4C4C4C;}
	.st1{fill-rule:evenodd;clip-rule:evenodd;fill:#626262;}
	.st2{fill:#003378;}
	.st3{fill:#FFFFFF;}
	.st4{fill:#0047BA;}
	.st5{fill:#F5333F;}
</style>
<g>
	<path class="st0" d="M1126.8,27.5c-0.2-0.3-0.4-0.6-0.8-0.6v-0.7h5.8v6.3h17.7v3.6H1127v-7.7C1127,28.2,1126.9,27.8,1126.8,27.5
		 M1148.7,16.8v10.6h-4.7V9.8c0-0.5-0.1-0.9-0.3-1.3c-0.2-0.4-0.5-0.6-0.8-0.6V7.3h5.8v6h4.6v3.6H1148.7z M1123.4,22.8V10.6
		c0-0.3-0.1-0.6-0.2-1.1c-0.2-0.5-0.4-0.7-0.8-0.7V8.1h16.6v3.6h-10.8v7.4h12.7v3.7H1123.4z M1110.2,11.6h-18.9V8h23.6v14.6h3.1v3.6
		h-11.9v10h-4.7v-10h-12v-3.6h20.8V11.6z M1066,26.6v5.8h17.7V36h-22.5v-6.9c0-0.5-0.1-0.9-0.3-1.3c-0.2-0.4-0.5-0.6-0.7-0.6v-0.7
		H1066z M1062.5,12.3c-0.8,0.9-1.2,2.1-1.2,3.4c0,1.3,0.4,2.5,1.2,3.4c0.8,0.9,1.8,1.4,2.9,1.4c1.1,0,2.1-0.5,2.9-1.4
		c0.8-0.9,1.2-2.1,1.2-3.4c0-1.3-0.4-2.4-1.2-3.4c-0.8-0.9-1.8-1.4-2.9-1.4C1064.2,10.9,1063.3,11.3,1062.5,12.3 M1078.6,16.9v-2.5
		h-4.6c0.1,0.2,0.1,0.4,0.1,0.6c0,0.2,0,0.4,0,0.6c0,0.2,0,0.4,0,0.6c0,0.2-0.1,0.4-0.1,0.6H1078.6z M1069.3,22.8
		c-1.2,0.6-2.5,0.9-4,0.9c-2.4,0-4.5-0.8-6.2-2.3c-1.7-1.6-2.6-3.5-2.6-5.7c0-2.2,0.9-4.1,2.6-5.7c1.7-1.6,3.8-2.4,6.2-2.4
		c1.4,0,2.8,0.3,4,0.9c1.2,0.6,2.2,1.4,3,2.4h6.3V9.7c0-0.5-0.1-0.9-0.3-1.3c-0.2-0.4-0.5-0.6-0.7-0.6h0V7.2h5.8V28h-4.7v-7.5h-6.3
		C1071.5,21.5,1070.5,22.3,1069.3,22.8 M1032.2,10.9c-1.4,0.6-2.2,1.2-2.2,2s0.7,1.4,2.2,2c1.4,0.6,3.2,0.9,5.2,0.9
		c2,0,3.8-0.3,5.2-0.9c1.4-0.6,2.1-1.2,2.1-2s-0.7-1.4-2.1-2c-1.4-0.6-3.2-0.9-5.2-0.9C1035.4,10,1033.7,10.3,1032.2,10.9
		 M1046.3,8.6c2.5,1.2,3.7,2.6,3.7,4.3c0,1.7-1.2,3.1-3.7,4.3c-2.5,1.2-5.4,1.8-8.9,1.8c-3.5,0-6.4-0.6-8.9-1.8
		c-2.5-1.2-3.7-2.6-3.7-4.3c0-1.7,1.2-3.1,3.7-4.3c2.5-1.2,5.4-1.8,8.9-1.8C1040.9,6.8,1043.9,7.4,1046.3,8.6 M1040.6,23.6h-6.3V26
		h6.3V23.6z M1029.6,23.6h-6.8V20h29v3.6h-6.6V26h4v10.2h-4.7v-6.6h-19V26h4.1V23.6z M1010.7,11.6h-18.3V8h23v23h2.9v3.6h-27.4V31
		h4.9v-7.6c0-0.5-0.1-0.9-0.3-1.3c-0.2-0.4-0.5-0.6-0.7-0.6v-0.6h5.2V31h2.5V20.9h4.5V31h3.7V11.6z M961.9,31.8V15.9h-5.8v-3.5
		c1.6,0,3.1-0.3,4.4-0.9c1.3-0.7,2.1-1.8,2.4-3.6h3.7v24H961.9z M934.5,31.8c0-2.7,0.7-4.7,2.2-6.3c1.4-1.5,3.1-2.9,5.2-4.3
		c1-0.7,2.1-1.6,3.2-2.7c1.1-1.1,1.7-2.3,1.7-3.7c0-1.1-0.3-1.9-1-2.6c-0.7-0.6-1.5-0.9-2.5-0.9c-1.4,0-2.4,0.6-2.9,1.7
		c-0.5,1.1-0.8,2.3-0.8,3.5h-4.5c-0.1-2.6,0.6-4.8,2.1-6.6c1.5-1.8,3.6-2.7,6.4-2.7c2.1,0,4,0.6,5.6,1.9c1.6,1.3,2.4,3,2.4,5.3
		c0,1.7-0.4,3.2-1.2,4.5s-1.8,2.3-2.9,3.1c-1.1,0.8-2.3,1.7-3.6,2.6c-1.2,0.9-2.3,2-3.1,3.2h11v4H934.5z M911.2,10.4
		c0-0.5-0.1-0.9-0.3-1.3c-0.2-0.4-0.5-0.6-0.8-0.6V7.8h5.9v10l9.6-10h6.1l-9.4,9.5l10.3,14.5h-5.9l-7.5-11.5l-3.3,3.2v8.3h-4.9V10.4
		z M900.1,27.3c0.9-0.6,1.3-1.5,1.3-2.7c0-1.2-0.4-2.1-1.2-2.6c-0.8-0.6-1.8-0.8-2.9-0.8h-6v7h5.9C898.3,28.1,899.3,27.8,900.1,27.3
		 M899.4,16.9c0.7-0.5,1.1-1.2,1.1-2.2c0-1.1-0.4-1.9-1.3-2.4c-0.8-0.5-1.7-0.8-2.7-0.8h-5.2v6.1h5.6
		C897.9,17.6,898.7,17.4,899.4,16.9 M905.2,21c0.7,1,1.1,2.3,1.1,3.7c0,2.4-0.9,4.1-2.6,5.3c-1.7,1.2-3.6,1.8-5.8,1.8h-11.5V10.4
		c0-0.5-0.1-0.9-0.3-1.3c-0.2-0.4-0.5-0.6-0.8-0.6V7.8h12.2c2.3,0,4.1,0.5,5.5,1.4c1.4,0.9,2.1,2.5,2.1,4.7c0,1.1-0.3,2.1-0.8,2.9
		c-0.6,0.8-1.3,1.5-2.4,2C903.4,19.2,904.5,19.9,905.2,21 M863.9,18.8v17.3h-4.7V9.8c0-0.5-0.1-0.9-0.3-1.3
		c-0.2-0.4-0.5-0.6-0.8-0.6V7.3h5.8v7.9h4.6v3.7H863.9z M857.3,26.9v3.6h-20.2v-3.6h4.5v-7.1c0-0.5-0.1-0.9-0.4-1.3
		c-0.2-0.4-0.5-0.6-0.7-0.6v-0.7h5.7v9.6h3.7V11.6h-11.4V8h16.1v18.8H857.3z M830.8,26.2v9.8h-4.7v-6.2h-19.6v-3.6H830.8z
		 M830.7,7.3v7.9h4.6v3.6h-4.6v5.1H826v-14c0-0.5-0.1-0.9-0.3-1.3c-0.2-0.4-0.5-0.6-0.7-0.6V7.3H830.7z M810.4,13.8
		c-0.7,0.8-1.1,1.8-1.1,3c0,1.2,0.4,2.1,1.1,3c0.7,0.8,1.6,1.3,2.6,1.3c1,0,1.9-0.4,2.6-1.3c0.7-0.8,1.1-1.8,1.1-3
		c0-1.2-0.4-2.2-1.1-3c-0.7-0.8-1.6-1.2-2.6-1.2C812,12.6,811.1,13,810.4,13.8 M804,11.8V8.2h7V8c0-0.4-0.2-0.8-0.4-1.1
		c-0.2-0.3-0.4-0.5-0.7-0.5h0V5.8h5.8v2.4h6.6v3.6h-3.8c0.9,0.6,1.6,1.4,2.1,2.3c0.5,0.9,0.8,1.9,0.8,2.9c0,1.9-0.8,3.6-2.5,5
		c-1.6,1.4-3.6,2.1-5.9,2.1c-2.3,0-4.2-0.7-5.9-2.1c-1.6-1.4-2.5-3-2.5-5c0-1,0.3-2,0.8-2.9c0.5-0.9,1.2-1.7,2.1-2.3H804z M771.9,30
		h27.6v3.6h-27.6V30z M780.4,21.9c-1.8,1.3-3.8,2.5-5.8,3.4l-2-2.1c2.6-1.5,4.8-3.3,6.7-5.5c1.9-2.2,3.3-4.4,4.1-6.5
		c0.2-0.7,0.2-1.3-0.1-1.8c-0.3-0.6-0.7-0.8-1.1-0.8V7.8h7.9c-0.3,1.3-0.7,2.5-1.2,3.7c-0.5,1.2-1.2,2.4-2,3.5
		c2.1,0.7,4.3,1.7,6.4,2.9c2.1,1.3,3.9,2.7,5.3,4.2l-3.7,3.2c-1.2-1.8-2.7-3.4-4.5-4.7c-1.8-1.3-3.5-2.4-5.3-3.3
		C783.8,19.1,782.2,20.6,780.4,21.9 M747.9,26.6v5.8h17.7V36h-22.5v-6.9c0-0.5-0.1-0.9-0.3-1.3c-0.2-0.4-0.5-0.6-0.7-0.6v-0.7H747.9
		z M744.4,12.3c-0.8,0.9-1.2,2.1-1.2,3.4c0,1.3,0.4,2.5,1.2,3.4c0.8,0.9,1.8,1.4,2.9,1.4s2.1-0.5,2.9-1.4c0.8-0.9,1.2-2.1,1.2-3.4
		c0-1.3-0.4-2.4-1.2-3.4c-0.8-0.9-1.8-1.4-2.9-1.4S745.2,11.3,744.4,12.3 M752.9,21.9c-1.6,1.2-3.5,1.8-5.6,1.8
		c-2.4,0-4.5-0.8-6.2-2.3c-1.7-1.6-2.6-3.5-2.6-5.7c0-2.2,0.9-4.1,2.6-5.7c1.7-1.6,3.8-2.4,6.2-2.4c2.1,0,3.9,0.6,5.5,1.7
		c1.6,1.2,2.6,2.6,3.1,4.4h4.5V9.8c0-0.5-0.1-0.9-0.3-1.3c-0.2-0.4-0.5-0.6-0.8-0.6V7.3h5.8v20.2h-4.7v-10h-4.4
		C755.5,19.2,754.5,20.7,752.9,21.9 M727.4,36.1V9.8c0-0.5-0.1-0.9-0.3-1.3c-0.2-0.4-0.5-0.6-0.8-0.6V7.3h5.8v28.9H727.4z
		 M710.8,13.5c-0.8,1.6-1.2,3.4-1.2,5.6c0,2.2,0.4,4,1.2,5.6c0.8,1.6,1.8,2.3,2.9,2.3c1.1,0,2.1-0.8,2.9-2.3s1.2-3.4,1.2-5.6
		c0-2.2-0.4-4.1-1.2-5.6c-0.8-1.6-1.8-2.3-2.9-2.3C712.5,11.2,711.5,12,710.8,13.5 M707.4,27.1c-1.7-2.2-2.6-4.8-2.6-7.9
		c0-3.1,0.9-5.8,2.6-7.9c1.7-2.2,3.8-3.3,6.2-3.3c2.4,0,4.5,1.1,6.2,3.3c1.7,2.2,2.6,4.8,2.6,7.9c0,3.1-0.9,5.7-2.6,7.9
		c-1.7,2.2-3.8,3.3-6.2,3.3C711.2,30.4,709.2,29.3,707.4,27.1 M698,18.8v17.4h-4.7V9.8c0-0.5-0.1-0.9-0.3-1.3
		c-0.2-0.4-0.5-0.6-0.8-0.6V7.3h5.8v7.9h4.6v3.6H698z M684.8,19.9c0.7,0.4,1.3,0.8,2,1.3c0.9,0.6,1.7,1.3,2.4,2.1
		c0.7,0.8,1.3,1.6,1.9,2.5l-3.5,3.1c-0.4-0.9-0.9-1.7-1.6-2.6c-0.6-0.8-1.3-1.6-2.1-2.4c-0.4-0.4-0.9-0.8-1.4-1.2
		c-0.5-0.4-1-0.7-1.5-1.1c-0.9,1.3-2.1,2.6-3.4,3.7c-1.4,1.1-2.9,2.1-4.7,3l-2.2-2.1c1.5-1,2.7-2.2,3.8-3.5c1.1-1.3,2-2.8,2.6-4.3
		c0.5-1.2,0.9-2.3,1.2-3.6c0.3-1.2,0.4-2.4,0.5-3.6c0-1-0.1-1.7-0.3-2.1c-0.3-0.4-0.6-0.6-0.9-0.6V7.9h6.9c0,2.2-0.2,4.2-0.5,6
		c-0.3,1.8-0.8,3.4-1.5,4.9C683.4,19.1,684.1,19.5,684.8,19.9 M655,20.2v-3.7h6.2V9.8c0-0.5-0.1-0.9-0.3-1.3
		c-0.2-0.4-0.5-0.6-0.7-0.6V7.3h5.8v28.9h-4.7V20.2H655z M644.9,26.8h12.3v3.6h-17V10.6c0-0.3-0.1-0.6-0.2-1.1
		c-0.2-0.5-0.4-0.7-0.8-0.7V8.1H656v3.6h-11.1v5.7h8.7V21h-8.7V26.8z M627.9,36.1V9.8c0-0.5-0.1-0.9-0.3-1.3
		c-0.2-0.4-0.5-0.6-0.8-0.6V7.3h5.8v28.9H627.9z M611.2,13.5c-0.8,1.6-1.2,3.4-1.2,5.6c0,2.2,0.4,4,1.2,5.6c0.8,1.6,1.8,2.3,2.9,2.3
		c1.1,0,2.1-0.8,2.9-2.3c0.8-1.6,1.2-3.4,1.2-5.6c0-2.2-0.4-4.1-1.2-5.6c-0.8-1.6-1.8-2.3-2.9-2.3C613,11.2,612,12,611.2,13.5
		 M607.9,27.1c-1.7-2.2-2.6-4.8-2.6-7.9c0-3.1,0.9-5.8,2.6-7.9c1.7-2.2,3.8-3.3,6.2-3.3c2.4,0,4.5,1.1,6.2,3.3
		c1.7,2.2,2.6,4.8,2.6,7.9c0,3.1-0.9,5.7-2.6,7.9c-1.7,2.2-3.8,3.3-6.2,3.3C611.7,30.4,609.6,29.3,607.9,27.1 M600.3,36.2h-4.7v-29
		h4.7V36.2z M589.2,16.4V9.8c0-0.5-0.1-0.9-0.3-1.3s-0.5-0.6-0.8-0.6V7.3h5.4v28.9h-4.4V20h-6.5v-3.6H589.2z M573.3,30.3V10.6
		c0-0.3-0.1-0.6-0.2-1.1c-0.2-0.5-0.4-0.7-0.8-0.7V8.1h13.4v3.6H578v14.9h9.4v3.7H573.3z M567.1,36.2h-4.7v-29h4.7V36.2z M547.7,24
		c-1.9,2.6-4,4.8-6.5,6.5l-2.3-1.7c2.3-2.1,4.3-4.8,6.1-8.2c1.8-3.4,2.7-6.4,2.7-9h-7.9V8.1h13.6c0,0.6-0.1,1.3-0.2,1.9
		c-0.1,0.7-0.2,1.3-0.3,2h3.1V9.8c0-0.5-0.1-0.9-0.3-1.3c-0.2-0.4-0.5-0.6-0.8-0.6V7.3h5.4v28.9H556V23.7h-5.1v-3.6h5.1v-4.5h-4.1
		C551,18.6,549.6,21.4,547.7,24 M525.5,33.2c1.4-0.4,2.1-0.9,2.1-1.5c0-0.6-0.7-1.1-2.1-1.5c-1.4-0.4-3.2-0.6-5.2-0.6
		c-2,0-3.7,0.2-5.1,0.6c-1.4,0.4-2.1,0.9-2.1,1.5c0,0.6,0.7,1.1,2.1,1.5c1.4,0.4,3.1,0.6,5.1,0.6C522.4,33.8,524.1,33.6,525.5,33.2
		 M529.3,27.9c2.5,1,3.7,2.3,3.7,3.7c0,1.5-1.2,2.7-3.7,3.7c-2.5,1-5.5,1.5-9,1.5c-3.5,0-6.5-0.5-8.9-1.5s-3.7-2.3-3.7-3.7
		c0-1.5,1.2-2.7,3.7-3.7c2.5-1,5.4-1.5,8.9-1.5C523.8,26.4,526.8,26.9,529.3,27.9 M508.2,20.8V10.3c0-0.3-0.1-0.6-0.2-1.1
		c-0.2-0.5-0.4-0.7-0.8-0.7V7.7h25.4v3.6H513v1.2h19.4v3.3H513v1.4h20.2v3.5h-10.5v1.5h12.1v3.6h-29v-3.6H518v-1.5H508.2z
		 M478.7,11.6h-18.3V8h23v23h2.9v3.6h-27.4V31h4.9v-7.6c0-0.5-0.1-0.9-0.3-1.3c-0.2-0.4-0.5-0.6-0.7-0.6v-0.6h5.2V31h2.5V20.9h4.5
		V31h3.7V11.6z M451,26.2v9.8h-4.7v-6.2h-19.6v-3.6H451z M450.9,7.3v7.9h4.6v3.6h-4.6v5.1h-4.7v-14c0-0.5-0.1-0.9-0.3-1.3
		c-0.2-0.4-0.5-0.6-0.7-0.6V7.3H450.9z M430.6,13.8c-0.7,0.8-1.1,1.8-1.1,3c0,1.2,0.4,2.1,1.1,3s1.6,1.3,2.6,1.3
		c1,0,1.9-0.4,2.6-1.3s1.1-1.8,1.1-3c0-1.2-0.4-2.2-1.1-3c-0.7-0.8-1.6-1.2-2.6-1.2C432.2,12.6,431.3,13,430.6,13.8 M424.2,11.8V8.2
		h7V8c0-0.4-0.2-0.8-0.4-1.1c-0.2-0.3-0.4-0.5-0.7-0.5h0V5.8h5.8v2.4h6.6v3.6h-3.8c0.9,0.6,1.6,1.4,2.1,2.3s0.8,1.9,0.8,2.9
		c0,1.9-0.8,3.6-2.5,5c-1.6,1.4-3.6,2.1-5.9,2.1c-2.3,0-4.2-0.7-5.9-2.1c-1.6-1.4-2.5-3-2.5-5c0-1,0.3-2,0.8-2.9s1.2-1.7,2.1-2.3
		H424.2z M392.4,30.4V10.5c0-0.5-0.1-0.9-0.3-1.3c-0.2-0.4-0.5-0.6-0.7-0.6V8h13.2v3.6h-7.5v15.2h11.2v-17c0-0.5-0.1-0.9-0.3-1.3
		c-0.2-0.4-0.5-0.6-0.7-0.6V7.3h5.4v7.9h2.1V7.3h4.7v28.9h-4.7V18.7h-2.1v17.4h-4.4v-5.7H392.4z M386.9,36h-4.7V7.2h4.7V36z
		 M380.3,7.2V36h-4.4V18.7h-4.6v-3.6h4.6V9.8c0-0.5-0.1-0.9-0.3-1.3c-0.2-0.4-0.5-0.6-0.7-0.6V7.2H380.3z M368.5,20.7
		c0.6,0.4,1.1,0.8,1.6,1.2c0.8,0.6,1.5,1.3,2.1,1.9c0.6,0.6,1.2,1.3,1.6,1.9l-2.6,3.4c-0.4-0.6-1-1.4-1.7-2.3
		c-0.7-0.9-1.4-1.6-2-2.3c-0.4-0.4-0.8-0.8-1.2-1.2c-0.4-0.4-0.9-0.7-1.3-1.1c-0.8,1.2-1.7,2.2-2.7,3.3s-2.1,1.9-3.3,2.7l-2.1-2.1
		c1.1-1,2.2-2.1,3.3-3.6c1.1-1.4,2-2.9,2.6-4.4c0.5-1.2,0.9-2.3,1.2-3.4c0.3-1.1,0.5-2.3,0.5-3.5c0-1-0.1-1.7-0.5-2.1
		c-0.4-0.4-0.7-0.6-1-0.6V7.9h6.8c0,2.5-0.3,4.6-0.9,6.5c-0.6,1.9-1.3,3.6-2.2,5.1C367.4,20,367.9,20.3,368.5,20.7 M335,26.6v5.8
		h17.7V36h-22.5v-6.9c0-0.5-0.1-0.9-0.3-1.3c-0.2-0.4-0.5-0.6-0.7-0.6v-0.7H335z M331.4,12.3c-0.8,0.9-1.2,2.1-1.2,3.4
		c0,1.3,0.4,2.5,1.2,3.4c0.8,0.9,1.8,1.4,2.9,1.4s2.1-0.5,2.9-1.4c0.8-0.9,1.2-2.1,1.2-3.4c0-1.3-0.4-2.4-1.2-3.4
		c-0.8-0.9-1.8-1.4-2.9-1.4S332.2,11.3,331.4,12.3 M347.6,16.9v-2.5H343c0.1,0.2,0.1,0.4,0.1,0.6c0,0.2,0,0.4,0,0.6
		c0,0.2,0,0.4,0,0.6c0,0.2-0.1,0.4-0.1,0.6H347.6z M338.3,22.8c-1.2,0.6-2.5,0.9-4,0.9c-2.4,0-4.5-0.8-6.2-2.3
		c-1.7-1.6-2.6-3.5-2.6-5.7c0-2.2,0.9-4.1,2.6-5.7c1.7-1.6,3.8-2.4,6.2-2.4c1.4,0,2.8,0.3,4,0.9c1.2,0.6,2.2,1.4,3,2.4h6.3V9.7
		c0-0.5-0.1-0.9-0.3-1.3c-0.2-0.4-0.5-0.6-0.7-0.6h0V7.2h5.8V28h-4.7v-7.5h-6.3C340.5,21.5,339.5,22.3,338.3,22.8"/>
	<path class="st0" d="M1072.9,81h-5.5v0.9h6.4V71.5h-0.9V81z M1074.9,70.4V83h-8.7v-3.1h5.5v-9.4H1074.9z M1056.2,61h-16.5v-3.1
		h20.7v12.8h2.7v3.1h-10.4v8.7h-4.1v-8.7H1038v-3.1h18.2V61z M1017.5,74.2v5.1h15.5v3.1h-19.7v-6c0-0.4-0.1-0.8-0.3-1.1
		c-0.2-0.3-0.4-0.5-0.7-0.5v-0.6H1017.5z M1014.4,61.6c-0.7,0.8-1,1.8-1,2.9c0,1.2,0.3,2.1,1,3c0.7,0.8,1.5,1.2,2.5,1.2
		c1,0,1.8-0.4,2.5-1.2c0.7-0.8,1.1-1.8,1.1-3c0-1.1-0.4-2.1-1.1-2.9c-0.7-0.8-1.6-1.2-2.5-1.2C1016,60.4,1015.1,60.8,1014.4,61.6
		 M1028.6,65.7v-2.2h-4c0.1,0.2,0.1,0.3,0.1,0.5c0,0.2,0,0.4,0,0.6s0,0.4,0,0.6c0,0.2-0.1,0.4-0.1,0.6H1028.6z M1020.4,70.8
		c-1.1,0.5-2.2,0.8-3.5,0.8c-2.1,0-3.9-0.7-5.4-2.1s-2.3-3-2.3-5s0.8-3.6,2.3-5c1.5-1.4,3.3-2.1,5.4-2.1c1.3,0,2.4,0.3,3.5,0.8
		c1.1,0.5,1.9,1.2,2.6,2.1h5.5v-1c0-0.4-0.1-0.8-0.3-1.1c-0.2-0.3-0.4-0.5-0.6-0.5h0v-0.6h5v18.2h-4.1v-6.6h-5.5
		C1022.3,69.7,1021.5,70.3,1020.4,70.8 M974.7,82c-1.5,0.6-2.9,1-4.1,1.1l-1.7-1.8c1.2-0.3,2.7-1,4.6-2c1.9-1,3.3-2.1,4.3-3.2h-8
		v-2.9h8.7v-0.9c0-0.1-0.1-0.3-0.2-0.5c-0.2-0.2-0.3-0.3-0.5-0.3v-0.7h4.7v2.4h8.2v2.9h-7.9c-0.2,0.2-0.4,0.5-0.6,0.7
		s-0.4,0.5-0.7,0.7c1.5,0.1,3.4,0.4,5.6,1c2.2,0.5,3.8,1.2,4.8,1.9l-3,2.8c-0.9-0.8-2.4-1.6-4.4-2.3c-2-0.7-3.8-1.1-5.3-1.4
		C977.7,80.6,976.3,81.4,974.7,82 M990.4,71.1h-4.1V59.4c0-0.4-0.1-0.8-0.3-1.2c-0.2-0.3-0.4-0.5-0.7-0.5v-0.6h5.1V71.1z
		 M977.6,61.1h-5.7v5.7h5.7V61.1z M967.8,69.9v-9.8c0-0.4-0.1-0.8-0.3-1.2c-0.2-0.3-0.4-0.5-0.6-0.5l0-0.5h14.9v12H967.8z
		 M932.8,60.4c-1.3,0.5-1.9,1.1-1.9,1.8c0,0.7,0.6,1.3,1.9,1.8c1.3,0.5,2.8,0.8,4.5,0.8c1.8,0,3.3-0.3,4.5-0.8
		c1.2-0.5,1.9-1.1,1.9-1.8c0-0.7-0.6-1.3-1.9-1.8s-2.8-0.8-4.5-0.8C935.6,59.6,934.1,59.9,932.8,60.4 M945.1,58.4
		c2.1,1,3.2,2.3,3.2,3.8s-1.1,2.7-3.2,3.8c-2.1,1-4.8,1.6-7.8,1.6c-3,0-5.6-0.5-7.8-1.6c-2.2-1-3.2-2.3-3.2-3.8s1.1-2.7,3.2-3.8
		c2.2-1,4.8-1.6,7.8-1.6C940.4,56.8,943,57.3,945.1,58.4 M940.1,71.5h-5.5v2.1h5.5V71.5z M930.5,71.5h-5.9v-3.1H950v3.1h-5.8v2.1
		h3.5v8.9h-4.1v-5.8H927v-3.2h3.6V71.5z M914,61h-16v-3.1h20.1V78h2.5v3.1h-23.9V78h4.3v-6.7c0-0.4-0.1-0.8-0.3-1.2
		c-0.2-0.3-0.4-0.5-0.7-0.5v-0.5h4.6V78h2.2v-8.9h3.9V78h3.3V61z M854.1,77.1h24.1v3.2h-24.1V77.1z M861.6,70.1
		c-1.6,1.2-3.3,2.2-5.1,3l-1.7-1.8c2.2-1.3,4.2-2.9,5.9-4.9c1.7-2,2.9-3.9,3.6-5.7c0.2-0.6,0.2-1.1-0.1-1.6c-0.3-0.5-0.6-0.7-1-0.7
		v-0.6h6.9c-0.2,1.1-0.6,2.2-1,3.3c-0.5,1.1-1,2.1-1.7,3.1c1.9,0.6,3.7,1.5,5.6,2.6c1.8,1.1,3.4,2.3,4.6,3.7l-3.2,2.8
		c-1.1-1.6-2.4-2.9-3.9-4.1c-1.5-1.2-3.1-2.1-4.6-2.9C864.6,67.6,863.2,68.9,861.6,70.1 M833.2,74.2v5.1h15.5v3.1h-19.7v-6
		c0-0.4-0.1-0.8-0.3-1.1c-0.2-0.3-0.4-0.5-0.7-0.5v-0.6H833.2z M830.1,61.6c-0.7,0.8-1,1.8-1,2.9c0,1.2,0.3,2.1,1,3
		c0.7,0.8,1.5,1.2,2.5,1.2s1.8-0.4,2.5-1.2c0.7-0.8,1.1-1.8,1.1-3c0-1.1-0.4-2.1-1.1-2.9c-0.7-0.8-1.6-1.2-2.5-1.2
		S830.8,60.8,830.1,61.6 M837.5,70c-1.4,1.1-3,1.6-4.9,1.6c-2.1,0-3.9-0.7-5.4-2.1c-1.5-1.4-2.3-3-2.3-5s0.8-3.6,2.3-5
		c1.5-1.4,3.3-2.1,5.4-2.1c1.8,0,3.4,0.5,4.8,1.5c1.4,1,2.3,2.3,2.7,3.8h3.9v-3.5c0-0.4-0.1-0.8-0.3-1.2c-0.2-0.3-0.4-0.5-0.7-0.5
		v-0.6h5v17.7H844v-8.8h-3.9C839.8,67.6,838.9,69,837.5,70 M815.3,82.5v-23c0-0.4-0.1-0.8-0.3-1.2c-0.2-0.3-0.4-0.5-0.7-0.5v-0.6h5
		v25.3H815.3z M800.7,62.7c-0.7,1.4-1,3-1,4.9c0,1.9,0.3,3.5,1,4.9c0.7,1.4,1.5,2,2.5,2s1.8-0.7,2.5-2c0.7-1.4,1.1-3,1.1-4.9
		c0-1.9-0.4-3.6-1.1-4.9c-0.7-1.4-1.6-2-2.5-2S801.3,61.3,800.7,62.7 M797.7,74.6c-1.5-1.9-2.3-4.2-2.3-6.9c0-2.7,0.8-5,2.3-7
		c1.5-1.9,3.3-2.9,5.4-2.9c2.1,0,3.9,1,5.5,2.9c1.5,1.9,2.3,4.2,2.3,7c0,2.7-0.8,5-2.3,6.9c-1.5,1.9-3.3,2.9-5.5,2.9
		C801.1,77.4,799.3,76.5,797.7,74.6 M789.5,67.3v15.2h-4.1V59.4c0-0.4-0.1-0.8-0.3-1.2c-0.2-0.3-0.4-0.5-0.7-0.5v-0.6h5v6.9h4v3.2
		H789.5z M777.9,68.2c0.6,0.3,1.2,0.7,1.7,1.1c0.8,0.6,1.4,1.2,2.1,1.8c0.6,0.7,1.2,1.4,1.6,2.2l-3,2.7c-0.4-0.8-0.8-1.5-1.4-2.2
		c-0.5-0.7-1.2-1.4-1.8-2.1c-0.4-0.4-0.8-0.7-1.2-1.1c-0.4-0.3-0.9-0.7-1.3-1c-0.8,1.2-1.8,2.3-3,3.2c-1.2,1-2.5,1.8-4.1,2.6
		l-1.9-1.8c1.3-0.9,2.4-1.9,3.3-3.1c0.9-1.2,1.7-2.4,2.3-3.8c0.4-1,0.8-2,1-3.1c0.3-1.1,0.4-2.1,0.4-3.2c0-0.9-0.1-1.5-0.3-1.8
		c-0.2-0.3-0.5-0.5-0.8-0.5v-0.6h6.1c0,1.9-0.1,3.6-0.4,5.2c-0.3,1.6-0.7,3-1.3,4.3C776.7,67.6,777.3,67.9,777.9,68.2 M738.8,68.6
		v-3.2h5.4v-5.9c0-0.4-0.1-0.8-0.3-1.2c-0.2-0.3-0.4-0.5-0.7-0.5v-0.6h5v25.3h-4.1V68.6H738.8z M729.9,74.3h10.7v3.2h-14.9V60.1
		c0-0.2-0.1-0.6-0.2-1c-0.1-0.4-0.4-0.6-0.7-0.6v-0.6h14.7v3.1h-9.7v5h7.6v3.1h-7.6V74.3z M715.1,82.5v-23c0-0.4-0.1-0.8-0.3-1.2
		c-0.2-0.3-0.4-0.5-0.7-0.5v-0.6h5.1v25.3H715.1z M700.5,62.7c-0.7,1.4-1,3-1,4.9c0,1.9,0.3,3.5,1,4.9c0.7,1.4,1.5,2,2.5,2
		c1,0,1.8-0.7,2.5-2c0.7-1.4,1.1-3,1.1-4.9c0-1.9-0.4-3.6-1.1-4.9c-0.7-1.4-1.6-2-2.5-2C702.1,60.7,701.2,61.3,700.5,62.7
		 M697.6,74.6c-1.5-1.9-2.3-4.2-2.3-6.9c0-2.7,0.8-5,2.3-7c1.5-1.9,3.3-2.9,5.4-2.9c2.1,0,3.9,1,5.5,2.9c1.5,1.9,2.3,4.2,2.3,7
		c0,2.7-0.8,5-2.3,6.9c-1.5,1.9-3.3,2.9-5.5,2.9C700.9,77.4,699.1,76.5,697.6,74.6 M690.9,82.5h-4.1V57.1h4.1V82.5z M681.2,65.2
		v-5.8c0-0.4-0.1-0.8-0.3-1.1s-0.4-0.5-0.7-0.5v-0.6h4.8v25.3h-3.8V68.4h-5.7v-3.2H681.2z M667.3,77.3V60.1c0-0.2-0.1-0.6-0.2-1
		c-0.1-0.4-0.4-0.6-0.7-0.6v-0.6h11.7v3.1h-6.6v13.1h8.2v3.2H667.3z M643.1,77.4h-11.8v2.1h11.8V77.4z M627.3,82.5v-7.8
		c0-0.4-0.1-0.8-0.3-1.1c-0.2-0.3-0.4-0.5-0.6-0.5v-0.6h5v2.2h11.8v-2.2h4.2v10.1H627.3z M647.3,65.5V71h-4.1V59.4
		c0-0.4-0.1-0.8-0.3-1.2c-0.2-0.3-0.4-0.5-0.7-0.5v-0.6h5v5.1h4v3.2H647.3z M629.5,62.3c-0.6,0.7-1,1.5-1,2.5c0,1,0.3,1.8,1,2.5
		c0.6,0.7,1.4,1,2.3,1s1.7-0.3,2.3-1c0.6-0.7,0.9-1.5,0.9-2.5c0-1-0.3-1.8-0.9-2.5c-0.6-0.7-1.4-1-2.3-1S630.1,61.6,629.5,62.3
		 M623.8,61.1V58h6.1v-0.2c0-0.4-0.1-0.7-0.3-1c-0.2-0.3-0.4-0.4-0.6-0.4h0v-0.5h5.1V58h5.7v3.1h-2.6c0.6,0.5,1.1,1.1,1.4,1.8
		c0.3,0.7,0.5,1.4,0.5,2.1c0,1.6-0.7,3-2.1,4.2c-1.4,1.2-3.1,1.7-5.2,1.7c-2,0-3.7-0.6-5.2-1.7c-1.4-1.2-2.1-2.5-2.1-4.2
		c0-0.8,0.2-1.5,0.5-2.1c0.3-0.7,0.8-1.3,1.4-1.8H623.8z M614.5,82.5v-4.7h-17.2v-3.2h21.3v7.9H614.5z M614.2,63.3h-12.5v2.3h12.5
		V63.3z M597.5,68.7v-8.9c0-0.4-0.1-0.7-0.3-1.1c-0.2-0.3-0.4-0.5-0.7-0.5v-0.6h5.1v2.8h12.5v-2.8h4.1v11.1H610v1.7h10.6v3.1h-25.4
		v-3.1h10.7v-1.7H597.5z M574.3,60.4c-1.3,0.5-1.9,1.1-1.9,1.8c0,0.7,0.6,1.3,1.9,1.8c1.3,0.5,2.8,0.8,4.5,0.8
		c1.8,0,3.3-0.3,4.5-0.8c1.2-0.5,1.9-1.1,1.9-1.8c0-0.7-0.6-1.3-1.9-1.8s-2.8-0.8-4.5-0.8C577.1,59.6,575.6,59.9,574.3,60.4
		 M586.7,58.4c2.1,1,3.2,2.3,3.2,3.8s-1.1,2.7-3.2,3.8c-2.1,1-4.8,1.6-7.8,1.6c-3,0-5.6-0.5-7.8-1.6c-2.2-1-3.2-2.3-3.2-3.8
		s1.1-2.7,3.2-3.8c2.2-1,4.8-1.6,7.8-1.6C581.9,56.8,584.5,57.3,586.7,58.4 M583.4,79.6c1.2-0.4,1.9-1,1.9-1.6s-0.6-1.1-1.9-1.6
		c-1.2-0.4-2.8-0.7-4.6-0.7c-1.8,0-3.3,0.2-4.5,0.7c-1.2,0.4-1.9,1-1.9,1.6s0.6,1.1,1.9,1.6c1.2,0.4,2.7,0.7,4.5,0.7
		C580.7,80.3,582.2,80.1,583.4,79.6 M581.7,71.5h-5.5v1.6c0.4-0.1,0.9-0.1,1.3-0.1c0.5,0,0.9,0,1.4,0c0.5,0,1,0,1.5,0
		c0.5,0,0.9,0.1,1.3,0.2V71.5z M588.9,75.8c0.8,0.7,1.1,1.4,1.1,2.2c0,1.4-1.1,2.6-3.3,3.6c-2.2,1-4.8,1.5-7.9,1.5
		c-3.1,0-5.7-0.5-7.8-1.5c-2.2-1-3.2-2.2-3.2-3.6c0-0.8,0.4-1.6,1.2-2.3c0.8-0.7,1.8-1.3,3.1-1.7v-2.5h-5.9v-3.1h25.4v3.1h-5.8v2.6
		C587.1,74.5,588.1,75.1,588.9,75.8 M542,77h-18.3v-3.1H542V77z M543.8,82.5V59.4c0-0.4-0.1-0.8-0.3-1.2c-0.2-0.3-0.4-0.5-0.7-0.5
		v-0.6h5.1v25.3H543.8z M529.8,61.4c-0.7,0.8-1,1.8-1,2.9c0,1.2,0.3,2.1,1,3c0.7,0.8,1.5,1.2,2.5,1.2s1.8-0.4,2.5-1.2
		c0.7-0.8,1.1-1.8,1.1-3c0-1.1-0.4-2.1-1.1-2.9c-0.7-0.8-1.6-1.2-2.5-1.2S530.5,60.6,529.8,61.4 M526.9,69.3c-1.5-1.4-2.3-3-2.3-5
		c0-1.9,0.8-3.6,2.3-5c1.5-1.4,3.3-2.1,5.4-2.1c2.1,0,3.9,0.7,5.5,2.1c1.5,1.4,2.3,3,2.3,5c0,1.9-0.8,3.6-2.3,5
		c-1.5,1.4-3.3,2.1-5.5,2.1C530.2,71.4,528.4,70.7,526.9,69.3 M498.9,75.5c-0.1-0.3-0.4-0.5-0.7-0.5v-0.6h5.1v5h15.5v3.1h-19.6v-6.2
		C499.1,76.1,499.1,75.8,498.9,75.5 M518.1,65.6v9.9H514v-16c0-0.4-0.1-0.8-0.3-1.2c-0.2-0.3-0.4-0.5-0.7-0.5v-0.6h5.1v5.2h4v3.2
		H518.1z M505.4,65.4h-6.1V69h6.1V65.4z M495.2,72.2V60c0-0.4-0.1-0.8-0.3-1.1s-0.4-0.5-0.7-0.5v-0.6h5v4.5h6.1v-4.5h4.1v14.3H495.2
		z M485.8,82.5v-23c0-0.4-0.1-0.8-0.3-1.2c-0.2-0.3-0.4-0.5-0.7-0.5v-0.6h5v25.3H485.8z M471,71.4c1.2-0.9,2.2-2,2.9-3.1
		c0.6-1,1.1-2,1.5-3.2c0.4-1.2,0.6-2.5,0.7-3.9H468v-3.1h13.2c0,2-0.2,4-0.7,5.8c-0.5,1.8-1.2,3.5-2.1,5c-1.1,1.7-2.4,3.2-4.1,4.4
		c-1.6,1.2-3.6,2.1-5.8,2.7l-1.8-1.9C468.4,73.1,469.8,72.3,471,71.4 M438.4,68.6v-3.2h5.4v-5.9c0-0.4-0.1-0.8-0.3-1.2
		c-0.2-0.3-0.4-0.5-0.7-0.5v-0.6h5.1v25.3h-4.1V68.6H438.4z M429.5,74.3h10.7v3.2h-14.9V60.1c0-0.2-0.1-0.6-0.2-1
		c-0.1-0.4-0.4-0.6-0.7-0.6v-0.6h14.7v3.1h-9.7v5h7.6v3.1h-7.6V74.3z M414.7,82.5v-23c0-0.4-0.1-0.8-0.3-1.2
		c-0.2-0.3-0.4-0.5-0.7-0.5v-0.6h5.1v25.3H414.7z M400.1,62.7c-0.7,1.4-1,3-1,4.9c0,1.9,0.3,3.5,1,4.9c0.7,1.4,1.5,2,2.5,2
		s1.8-0.7,2.5-2c0.7-1.4,1.1-3,1.1-4.9c0-1.9-0.4-3.6-1.1-4.9c-0.7-1.4-1.6-2-2.5-2S400.8,61.3,400.1,62.7 M397.2,74.6
		c-1.5-1.9-2.3-4.2-2.3-6.9c0-2.7,0.8-5,2.3-7c1.5-1.9,3.3-2.9,5.4-2.9c2.1,0,3.9,1,5.5,2.9c1.5,1.9,2.3,4.2,2.3,7
		c0,2.7-0.8,5-2.3,6.9c-1.5,1.9-3.3,2.9-5.5,2.9C400.5,77.4,398.7,76.5,397.2,74.6 M390.5,82.5h-4.1V57.1h4.1V82.5z M380.8,65.2
		v-5.8c0-0.4-0.1-0.8-0.3-1.1c-0.2-0.3-0.4-0.5-0.7-0.5v-0.6h4.8v25.3h-3.8V68.4h-5.7v-3.2H380.8z M366.9,77.3V60.1
		c0-0.2-0.1-0.6-0.2-1c-0.1-0.4-0.4-0.6-0.7-0.6v-0.6h11.7v3.1H371v13.1h8.2v3.2H366.9z M360.5,74v8.5h-4.1v-5.3h-15.8V74H360.5z
		 M360.5,72.7h-4.1V59.4c0-0.4-0.1-0.8-0.3-1.2c-0.2-0.3-0.4-0.5-0.7-0.5v-0.6h5.1V72.7z M347.2,64.6h-6.1v3.1h6.1V64.6z
		 M336.9,70.9V60c0-0.4-0.1-0.8-0.3-1.1c-0.2-0.3-0.4-0.5-0.7-0.5v-0.6h5.1v3.6h6.1v-3.6h4.2v13H336.9z M327.2,57.5h5.5v-0.9h-6.4
		V67h0.9V57.5z M325.2,68.1V55.5h8.7v3.1h-5.5v9.4H325.2z"/>
</g>
<rect x="103.7" y="12" class="st1" width="2" height="65"/>
<g>
	<g>
		<path class="st2" d="M0,44.5C0,19.9,20,0,44.5,0C69,0,88.9,19.9,88.9,44.5C88.9,69,69,88.9,44.5,88.9C20,88.9,0,69,0,44.5z"/>
		<path class="st3" d="M44.5,76.9c-17.9,0-32.4-14.5-32.4-32.4c0-17.9,14.5-32.4,32.4-32.4c17.9,0,32.4,14.5,32.4,32.4
			C76.9,62.4,62.4,76.9,44.5,76.9z"/>
		<g>
			<path class="st3" d="M7,55c0,0.7,0.6,1.3,1.2,1.3c0.7,0,1.3-0.6,1.3-1.3c0-0.7-0.6-1.2-1.3-1.2C7.5,53.7,7,54.3,7,55z"/>
			<path class="st3" d="M82.4,55.2c0,0.7-0.6,1.3-1.3,1.3c-0.7,0-1.3-0.6-1.3-1.3c0-0.7,0.6-1.3,1.3-1.3
				C81.8,53.9,82.4,54.5,82.4,55.2z"/>
		</g>
		<g>
			<g>
				<path class="st3" d="M8.8,29.6c-0.9-0.3-1.7-0.2-2.4,0.1c-0.8,0.4-1.4,1.2-1.7,2.2c-0.3,1-0.3,1.9,0.1,2.7
					c0.4,0.8,1.1,1.4,2,1.6c1.5,0.5,3.5,0,4.2-2.3c0.3-1,0.3-1.9-0.2-2.7C10.4,30.5,9.7,29.8,8.8,29.6z M10.6,33.5
					c-0.4,1.4-1.9,2-3.6,1.5c-2.1-0.7-2-2-1.8-2.7c0.2-0.6,0.5-1,1.1-1.3c0.7-0.3,1.5-0.4,2.5-0.1c0.9,0.3,1.5,0.7,1.8,1.3
					C10.8,32.7,10.7,33.2,10.6,33.5z"/>
			</g>
			<path class="st3" d="M17.6,21.4l-1.2-1.1l0.2-0.2c0,0,0.4,0.3,0.5,0.3c0.6,0.3,1.1,0,1.3-0.3c0.5-0.5,0.4-1.1,0.1-1.4
				c-0.3-0.3-0.7-0.4-1.5-0.3l-0.5,0.1c-1.1,0.2-1.8,0-2.3-0.5c-0.7-0.7-0.6-1.7,0.2-2.6c0.7-0.7,1.1-0.8,1.1-0.8l1,1l-0.2,0.3
				c0,0-0.2-0.3-0.7-0.4c-0.2,0-0.5,0-0.9,0.4c-0.4,0.4-0.4,0.9-0.1,1.2c0.2,0.2,0.5,0.3,1.4,0.2c0,0,0.3,0,0.3,0
				c1.3-0.2,2-0.1,2.5,0.5c0.3,0.3,0.7,0.8,0.5,1.6c-0.1,0.4-0.3,0.8-0.7,1.2C18.5,21,17.9,21.4,17.6,21.4z"/>
			<path class="st3" d="M72.5,22.9l1.3-0.9l0.2,0.3c0,0-0.4,0.3-0.4,0.4c-0.5,0.6-0.2,1.1,0,1.4c0.4,0.6,1,0.6,1.3,0.4
				c0.3-0.2,0.6-0.5,0.6-1.4l0-0.5c0.1-1.1,0.4-1.8,1-2.2c0.8-0.5,1.8-0.3,2.5,0.7c0.6,0.8,0.5,1.2,0.5,1.2l-1.2,0.8l-0.2-0.3
				c0,0,0.4-0.2,0.5-0.6c0.1-0.2,0.1-0.5-0.2-0.9c-0.3-0.5-0.8-0.6-1.2-0.3c-0.3,0.2-0.4,0.4-0.5,1.3l0,0.3c-0.1,1.3-0.3,1.9-1,2.4
				c-0.3,0.2-0.9,0.5-1.7,0.2c-0.4-0.2-0.8-0.5-1.1-0.9C72.8,23.9,72.4,23.3,72.5,22.9z"/>
			<path class="st3" d="M22.4,13c0.3-0.3,0.4-0.1,0.7,0.2l0.2-0.2l-1-1.4l-0.2,0.2c0.3,0.4,0.3,0.5,0,0.7l-1,0.7l-1.3-1.7
				c0,0,0.8-0.6,1-0.7c0.5-0.3,0.7-0.1,0.9,0.2l0.2-0.2l-0.8-1.1l-3.3,2.5l0.2,0.2c0.2-0.2,0.6-0.5,1-0.1c0.4,0.5,2.8,3.7,2.8,3.7
				c0.4,0.6,0.2,0.6-0.2,0.9l0.2,0.3l3.4-2.5l-0.9-1.1L24.1,14c0.4,0.5,0.3,0.8,0,1.1c-0.2,0.2-1.1,0.8-1.1,0.8l-1.5-2.1
				c0,0,0,0,0,0L22.4,13z"/>
			<path class="st3" d="M66.7,13.4c0.4,0.2,0.3,0.4,0,0.7l0.3,0.2l1-1.5l-0.3-0.2c-0.2,0.4-0.3,0.5-0.7,0.2l-1-0.7l1.2-1.8
				c0,0,0.8,0.5,1,0.7c0.5,0.3,0.3,0.6,0.1,0.9l0.2,0.2l0.7-1.1l-3.4-2.3l-0.2,0.2c0.2,0.2,0.7,0.4,0.4,0.9
				c-0.3,0.5-2.6,3.9-2.6,3.9c-0.4,0.6-0.5,0.4-0.9,0.1l-0.2,0.3l3.5,2.4l0.8-1.2l-0.3-0.2c-0.4,0.5-0.7,0.6-1,0.3
				c-0.2-0.2-1.1-0.7-1.1-0.7l1.4-2.1c0,0,0,0,0,0L66.7,13.4z"/>
			<path class="st3" d="M26,8c-0.2-0.4,0-0.5,0.4-0.7l-0.1-0.3L24,8.3l0.1,0.3c0,0,0.6-0.4,0.8,0.1c0.1,0.2,2.3,4.4,2.3,4.4
				c0.2,0.4,0,0.5-0.4,0.7l0.1,0.3l2.5-1.3l-0.1-0.3c-0.4,0.2-0.8,0.5-1,0C28.1,12,26,8,26,8z"/>
			<path class="st3" d="M39.6,6.5l-0.5-2.6c-0.1-0.4,0.1-0.5,0.6-0.6L39.6,3l-2.2,0.5l0.1,0.3c0,0,0.7-0.2,0.8,0.3
				c0,0.1,0.5,2.7,0.5,2.7c0.2,0.9,0.3,1.6-0.1,2.1c-0.3,0.5-0.8,0.6-1,0.6c-0.3,0.1-0.6,0.1-1.1-0.1c-0.4-0.2-0.8-0.6-1-1.8
				l-0.6-2.8c-0.1-0.4,0.1-0.5,0.6-0.6l-0.1-0.3l-2.6,0.5l0.1,0.3c0,0,0.7-0.2,0.8,0.3c0,0.1,0.6,2.9,0.6,2.9
				c0.2,1.1,0.6,1.7,1.2,2.1c0.8,0.5,1.6,0.3,2,0.2c0.5-0.1,1.1-0.3,1.6-1C39.9,8.4,39.8,7.4,39.6,6.5z"/>
			<path class="st3" d="M54.6,4.9c0.1-0.4,0.3-0.4,0.8-0.3l0.1-0.3l-2.6-0.6L52.8,4c0,0,0.7,0.1,0.6,0.6c-0.1,0.3-1.1,4.9-1.1,4.9
				c-0.1,0.4-0.3,0.4-0.8,0.3L51.4,10l2.8,0.6l0.1-0.3c-0.4-0.1-0.9-0.1-0.8-0.6C53.6,9.3,54.6,4.9,54.6,4.9z"/>
			<path class="st3" d="M81.4,27.2c0.4-0.2,0.5,0,0.7,0.4l0.3-0.1l-1.2-2.4L81,25.2c0,0,0.4,0.6-0.1,0.8c-0.2,0.1-4.5,2.2-4.5,2.2
				c-0.4,0.2-0.5,0-0.7-0.5L75.5,28l1.3,2.5l0.3-0.1c-0.2-0.4-0.5-0.8,0-1C77.4,29.1,81.4,27.2,81.4,27.2z"/>
			<path class="st3" d="M83.6,30.2l-1.3,0.2l0.1,0.3c0.4-0.1,0.8-0.1,0.9,0.5c0,0.1,0.1,0.3,0.4,1.2c-0.7,0.2-4.9,1.5-4.9,1.5
				c-0.4,0.1-0.5-0.1-0.6-0.6l-0.3,0.1l0.8,2.7l0.3-0.1c-0.1-0.4-0.3-0.9,0.2-1c0.4-0.1,4.3-1.3,4.9-1.5c0.3,0.9,0.3,1.1,0.4,1.2
				c0.2,0.5-0.1,0.7-0.5,0.9l0.1,0.3l1.2-0.6L83.6,30.2z"/>
			<path class="st3" d="M74.6,16.3c-0.1-0.6-0.5-1-0.9-1.4l-1.8-1.8l-0.2,0.2c0,0,0.6,0.4,0.2,0.8c-0.2,0.2-3.5,3.6-3.5,3.6
				c-0.3,0.3-0.5,0.2-0.8-0.2l-0.2,0.2l2,2l0.2-0.2c-0.3-0.3-0.7-0.6-0.3-1l1.3-1.3l0.5,0.5l-0.2,1.4c-0.1,0.8-0.2,1.3,0,1.7
				c0.1,0.3,0.2,0.4,0.5,0.8l0.6,0.6l0.2-0.2l-0.1-0.2c-0.1-0.1-0.3-0.4-0.3-1c0-0.6,0.1-1.4,0.2-2.4c0,0,0-0.3,0-0.4
				c1,0.1,1.6-0.1,2.1-0.6C74.6,17.1,74.6,16.5,74.6,16.3z M73.1,17.1c-0.5,0.5-1,0.6-1.2,0.5c-0.2,0-0.3-0.1-0.5-0.3L71,16.9l2-2
				l0.3,0.3C73.5,15.5,73.9,16.2,73.1,17.1z"/>
			<g>
				<path class="st3" d="M7.3,40.3c-0.3,0-0.5,0-0.8-0.2c-0.3-0.2-2.2-1.5-2.5-1.8c-0.2-0.2-0.3-0.3-0.3-0.5
					c-0.1-0.1-0.1-0.3-0.1-0.3c0-0.1,0-0.2,0-0.2l-0.3,0l-0.2,2.1l0.3,0c0,0,0-0.2,0-0.2c0-0.1,0.1-0.1,0.1-0.1
					c0.1,0,0.2,0.1,0.4,0.1c0.1,0.1,2,1.4,2,1.4s-2.3,1.1-2.5,1.1c0,0-0.2,0.1-0.3,0.1c0,0-0.1,0-0.1-0.1c0,0,0,0,0,0
					c0-0.1,0-0.2,0-0.2l-0.3,0l-0.2,2.4l0.3,0c0,0,0-0.3,0.2-0.5c0.1-0.2,0.3-0.3,0.6-0.5c0.5-0.3,2.4-1.2,2.5-1.2
					c0.3-0.1,0.4-0.1,0.9-0.1c0,0,0.9,0.1,1.4,0.1c0.5,0,0.5,0.3,0.5,0.8l0.3,0l0.3-2.8l-0.3,0c0,0.5,0,0.9-0.7,0.9
					C8.1,40.4,7.3,40.3,7.3,40.3z"/>
			</g>
			<g>
				<path class="st3" d="M81.7,41.6c0.3,0,0.5-0.1,0.8,0c0.4,0.1,2.4,1.1,2.8,1.3c0.2,0.2,0.3,0.2,0.4,0.4c0.1,0.1,0.1,0.2,0.1,0.3
					c0,0.1,0,0.2,0,0.2l0.3,0L86,41.8l-0.3,0c0,0,0,0.2,0,0.2c0,0.1,0,0.1-0.1,0.1c-0.1,0-0.2,0-0.4-0.1c-0.1,0-2.3-1-2.3-1
					s2-1.5,2.2-1.6c0,0,0.2-0.1,0.2-0.1c0,0,0.1,0,0.1,0c0,0,0,0,0,0c0,0.1,0,0.2,0,0.2l0.3,0l-0.2-2.4l-0.3,0c0,0,0,0.3-0.1,0.5
					c-0.1,0.2-0.3,0.4-0.5,0.6c-0.4,0.3-2.1,1.6-2.2,1.7c-0.2,0.1-0.4,0.2-0.8,0.3c0,0-0.9,0.1-1.4,0.1c-0.5,0.1-0.6-0.2-0.6-0.6
					l-0.3,0l0.3,2.8l0.3,0c0-0.5-0.1-0.9,0.5-1C80.9,41.7,81.7,41.6,81.7,41.6z"/>
			</g>
			<g>
				<path class="st3" d="M15.9,23.7l-0.2,0.4l-6.2,1.4l3,1.9c0.6,0.4,0.9-0.1,1.1-0.5l0.3,0.2l-1.3,2l-0.3-0.2
					c0.2-0.3,0.4-0.6-0.2-1c-0.6-0.4-4.7-2.9-4.7-2.9l0.2-0.3c1.1-0.2,6.1-1.3,6.3-1.4c0,0-2.6-1.6-3.1-1.9c-0.6-0.3-0.8,0.1-1,0.4
					l-0.3-0.2l1.2-1.9l0.3,0.2c-0.2,0.3-0.4,0.6,0.2,0.9C11.8,21.2,15.9,23.7,15.9,23.7z"/>
			</g>
			<g>
				<path class="st3" d="M48.6,9.6l-0.4,0L44,4.8l-0.2,3.5c0,0.8,0.5,0.7,0.9,0.7l0,0.3l-2.4-0.1l0-0.3c0.4,0,0.8,0.1,0.8-0.6
					c0-0.7,0.3-5.5,0.3-5.5l0.4,0c0.7,0.8,4.1,4.8,4.2,4.9c0,0,0.2-3,0.2-3.7c0-0.7-0.5-0.7-0.8-0.7l0-0.3l2.2,0.1l0,0.3
					c-0.3,0-0.7-0.1-0.7,0.6C48.9,4.7,48.6,9.6,48.6,9.6z"/>
			</g>
			<path class="st3" d="M64,8L64,7.7l-1.9-0.8L62,7.1l0.2,0.1c0.1,0,0.1,0.1,0.1,0.2c0,0.1-0.1,0.2-0.2,0.4l-1.8,1.8
				c0,0-1,1-1.2,1.2c0-0.2,0.1-2.5,0.2-3.5l0.1-0.9c0,0,0-0.2,0.1-0.2c0,0,0.1-0.1,0.2,0l0.2,0.1L60,5.9l-2.2-1l-0.1,0.3
				c0,0,0.3,0.1,0.4,0.3c0.1,0.1,0.1,0.4,0.1,0.7l-0.1,6l0.2,0.1l3.4-3.1l1.2-1.1c0,0,0.4-0.4,0.8-0.2L64,8z"/>
		</g>
		<g>
			<g>
				<path class="st3" d="M46.6,79.4c0,0.1,0,2,0,2H46c0,0,0-1.9,0-2c-0.1,0-1.3,0-1.3,0c0,0,0,0.1,0,0.2l0,0c0.1,0,0.3,0.2,0.3,0.5
					c0,0,0,2.4,0,4.3c-0.7,0-2.8,0-2.8,0v-3.8c0,0,1.8,0,1.8,0c0-0.1,0-0.8,0-0.9c-0.1,0-3.2,0-3.3,0c0,0,0,0.1,0,0.2l0,0
					c0.1,0,0.3,0.2,0.3,0.5c0,0,0,4.9,0,5c0.1,0,3.1,0,3.9,0c0,0.8,0,1.4,0,1.4c0.1,0,1,0,1.1,0c0-0.1,0-4.3,0-4.3h0.5
					c0,0,0,4.3,0,4.3c0.1,0,1.1,0,1.2,0c0-0.1,0-7.1,0-7.2l0,0C47.7,79.4,46.6,79.4,46.6,79.4z"/>
			</g>
			<g>
				<path class="st3" d="M77.7,68.5c-0.9-0.8-4.4-3.6-4.4-3.7h0c0,0-3.6,4.3-3.6,4.4c0.1,0,0.6,0.5,0.7,0.6c0-0.1,2.9-3.5,2.9-3.5
					s2.9,2.4,3.7,3.1c-0.3,0.4-0.6,0.7-0.6,0.7s-1.9-1.6-2-1.6c0,0.1-0.7,0.8-0.7,0.8c0.1,0.1,2,1.6,2,1.6l-0.4,0.5
					c0,0-1.9-1.6-1.9-1.6c0,0.1-0.8,0.9-0.8,1c0,0,0.1,0.1,0.1,0.1h0c0.1-0.1,0.3-0.1,0.5,0.1l1.5,1.2c0,0-0.8,0.9-0.8,1
					c0.1,0,0.6,0.5,0.7,0.6c0-0.1,4.3-5.1,4.3-5.2c-0.1,0-0.6-0.5-0.7-0.6C78.1,68,78,68.2,77.7,68.5z"/>
			</g>
			<g>
				<path class="st3" d="M30.8,76.7c0,0.1-3,6.5-3,6.6c0.1,0,1,0.5,1.1,0.5c0-0.1,3-6.5,3-6.5h0C31.9,77.2,30.9,76.7,30.8,76.7z"/>
				<path class="st3" d="M29.2,76c0,0-0.1,0.1-0.1,0.1h0c0.1,0.1,0.1,0.3,0,0.5l-0.6,1.2c0,0-1-0.5-1.1-0.5c0,0.1-0.3,0.8-0.4,0.8
					c0.1,0,1.1,0.5,1.1,0.5s-1.8,3.9-1.8,3.9c0.1,0,0.9,0.4,0.9,0.4c0-0.1,3-6.5,3-6.6l0,0C30.4,76.5,29.3,76,29.2,76z"/>
				<path class="st3" d="M26.2,78L26.2,78L26.2,78c0.8-0.7,1.4-1.4,1.8-2.4l0,0c-0.1,0-1.5-0.7-1.5-0.7c0,0-0.1,0.1-0.1,0.1l0,0
					c0,0,0.3,0.2,0.1,0.8v0c0,0-0.8,1.8-3.3,2.6c0,0.1,0.3,0.6,0.3,0.7h0c0,0,0.8-0.1,1.9-0.7l0,0l0,0c0.2,0.3,0.4,0.9,0.7,2.2
					c0.1-0.1,0.9-0.5,0.9-0.5C26.9,79.5,26.6,78.8,26.2,78z"/>
			</g>
			<g>
				<path class="st3" d="M59.4,82.3c0.1,0,4.4-2.1,4.4-2.1s0.6,1.3,0.7,1.4c0.1,0,1-0.5,1-0.5c0-0.1-1-2.1-1.1-2.2
					c-0.1,0-5.3,2.6-5.4,2.6C59,81.6,59.3,82.3,59.4,82.3z"/>
				<path class="st3" d="M62.3,74.6c-0.1,0-1.2,0.6-1.3,0.6c0,0,0.1,0.1,0.1,0.1v0c0.1-0.1,0.3,0.1,0.4,0.3c0,0,1.5,3.1,1.5,3.2
					c0.1,0,1-0.5,1-0.5c0-0.1-0.6-1.2-0.6-1.2s1-0.5,1-0.5c0-0.1-0.3-0.7-0.4-0.7c-0.1,0-1,0.5-1,0.5S62.4,74.7,62.3,74.6z"/>
				<path class="st3" d="M57.6,79.6c0.4,0.9,1.6,1.2,2.6,0.7c1-0.5,1.5-1.6,1.1-2.5c-0.2-0.5-0.6-0.8-1.1-0.9
					c0.4-0.2,0.8-0.4,0.8-0.4c0-0.1-0.4-0.7-0.4-0.8c-0.1,0-1.5,0.7-1.5,0.7s-0.2-0.5-0.3-0.5l0,0c0,0-1.2,0.6-1.3,0.6
					c0,0,0,0.1,0.1,0.1v0c0.1,0,0.3,0.1,0.4,0.3l0,0c0,0-1.5,0.7-1.6,0.7c0,0.1,0.4,0.7,0.4,0.8c0,0,0.3-0.1,0.7-0.3
					C57.4,78.6,57.4,79.1,57.6,79.6z M59.9,79.7c-0.5,0.2-1.1,0-1.4-0.5c-0.2-0.5,0-1.1,0.5-1.4c0.5-0.2,1.1,0,1.4,0.5
					C60.6,78.8,60.4,79.4,59.9,79.7z"/>
			</g>
			<g>
				<path class="st3" d="M13.3,69L13.3,69c0,0-0.9-1-0.9-1.1c0,0-0.1,0.1-0.1,0.1h0c0.1,0.1,0,0.3-0.2,0.5c0,0-1.2,1.1-1.3,1.1
					c0,0.1,3.6,4.1,3.6,4.2c0.1-0.1,0.6-0.5,0.7-0.6C15,73.2,12.2,70,12.2,70S13.2,69.1,13.3,69z"/>
				<path class="st3" d="M15.5,69.3c0.3,0.4,1,1.1,1,1.1s-1.4,1.2-1.4,1.2c0,0.1,0.7,0.8,0.8,0.9c0.1,0,3.9-3.4,3.9-3.4
					c0-0.1-0.9-1-0.9-1.1c0,0-0.1,0.1-0.1,0.1l0,0c0.1,0.1,0,0.3-0.2,0.5l-0.2,0.2c0,0-0.9-1-1.1-1.2c0.1-0.6-0.1-1.2-0.6-1.7
					c-0.8-0.9-2.1-1-2.9-0.3c-0.8,0.7-0.9,2-0.1,2.9C14.1,69.1,14.8,69.3,15.5,69.3z M17.6,69.4l-0.5,0.4c0,0-0.4-0.5-0.7-0.8
					c0.1,0,0.1-0.1,0.2-0.1c0.1-0.1,0.2-0.2,0.3-0.3C17.2,68.9,17.6,69.4,17.6,69.4z M14.5,66.4c0.5-0.4,1.2-0.4,1.6,0
					c0.4,0.4,0.3,1.2-0.2,1.6c-0.5,0.4-1.2,0.4-1.6,0C13.9,67.5,14,66.8,14.5,66.4z"/>
			</g>
		</g>
	</g>
	<g>
		<path class="st2" d="M44.5,28.9c-2.6,0-4.8,2.1-4.8,4.8c0,2.6,2.1,4.8,4.8,4.8c2.6,0,4.8-2.1,4.8-4.8C49.2,31,47.1,28.9,44.5,28.9
			z"/>
		<path class="st2" d="M33,67.8c3,2.6,6.7,5.1,11.5,7.3c4.8-2.2,8.5-4.7,11.5-7.3L44.5,56.3L33,67.8z"/>
		<path class="st2" d="M67.9,40.4V24.5c0,0-13.6,0.4-23.4-7.2C34.6,24.9,21,24.5,21,24.5v15.9c0,0-0.1,3.4,0.5,7.1
			c7.4-1.4,15.1-2.1,22.9-2.1c7.8,0,15.5,0.7,22.9,2.1C68,43.8,67.9,40.4,67.9,40.4z M44.5,43c-5.1,0-9.3-4.2-9.3-9.3
			c0-5.1,4.2-9.3,9.3-9.3c5.1,0,9.3,4.2,9.3,9.3C53.8,38.8,49.6,43,44.5,43z"/>
		<path class="st2" d="M21.8,48.9c0.1,0.5,0.2,1,0.3,1.5c1.1,4.2,3.1,9,7.1,13.7l15.3-15.3l15.3,15.3c4-4.7,6-9.5,7.1-13.7
			c0.1-0.5,0.2-1,0.3-1.5c-7.3-1.3-14.9-2.1-22.7-2.1C36.7,46.8,29.1,47.5,21.8,48.9z"/>
	</g>
	<g>
		<path class="st3" d="M28.6,37.4h2.2c0.1,0,0.1-0.1,0.1-0.1v-4.5c0-0.1-0.1-0.1-0.1-0.1H29c-0.3,0-0.6,0.2-0.6,0.6v4.1
			C28.4,37.3,28.5,37.4,28.6,37.4z"/>
		<path class="st3" d="M25.5,37.4h2.2c0.1,0,0.1-0.1,0.1-0.1v-4.1c0-0.3-0.2-0.6-0.5-0.6h-1.8c-0.1,0-0.1,0.1-0.1,0.1v4.5
			C25.4,37.3,25.5,37.4,25.5,37.4z"/>
		<path class="st3" d="M31.9,33.4h-0.5v4.5h-2.8l0,0c0,0.3-0.3,0.5-0.5,0.5c-0.3,0-0.5-0.2-0.5-0.5l0,0h-2.8v-4.5h-0.5
			c-0.1,0-0.1,0.1-0.1,0.1v4.7c0,0.1,0.1,0.1,0.1,0.1h2.8c0.2,0.4,0.6,0.6,1,0.6c0.4,0,0.8-0.2,1-0.6h2.8c0.1,0,0.1-0.1,0.1-0.1
			v-4.7C32,33.5,32,33.4,31.9,33.4z"/>
	</g>
	<g>
		<path class="st3" d="M61.5,36.9h-1.8c-0.1,0-0.2,0.1-0.2,0.2l0.6,3.8c0,0.2,0.2,0.3,0.3,0.3h0.3c0.2,0,0.3-0.1,0.3-0.3l0.6-3.8
			C61.6,37,61.6,36.9,61.5,36.9z"/>
		<path class="st3" d="M61.7,35.2c0.5-0.4,1.6-1.6,1.4-2.3c-0.1-0.7-2.1-1.8-2.3-2.6c-0.1-0.4,0.1-0.8,0.3-1.2c0-0.1,0-0.1-0.1,0
			c0,0-1.7,1.3-1.7,2.1c0,0.3,0.2,0.7,0.6,1c0.3,0.3,0.8,0.5,1.1,0.9c0.2,0.2,0.3,0.3,0.4,0.5c0.2,0.5-0.3,1.2-0.6,1.5h-0.7
			c0.3-0.3,0.6-0.7,0.7-1.2c0.3-1-2.3-1.3-1.9-2.8h0c0-0.1,0-0.1-0.1,0c0,0-1,1-1,1.6c0,0.6,1.2,1.1,1.7,1.9c0.1,0.2,0.1,0.3,0,0.5
			h-1c0,0-0.2,0-0.1,0.2l0.3,0.9c0,0,0.1,0.1,0.2,0.1h3.3c0.2,0,0.2-0.1,0.2-0.1l0.3-0.9c0.1-0.2-0.2-0.2-0.2-0.2H61.7z"/>
	</g>
	<g>
		<path class="st3" d="M39.9,65.3c-0.2,0.1-1,0.7-1.1,0.7c-0.1,0-0.1,0.1-0.1,0.1c0,0.1,0,0.1,0.1,0.1l0.1,0l0.1-0.1
			c0.1,0,0.3-0.1,0.4-0.1c0,0,0,0.1,0,0.1v0.6v0.7l0,1c0,0.1,0,0.2-0.1,0.2l-0.4,0c-0.1,0-0.1,0-0.1,0.1c0,0,0,0.1,0.1,0.1l0.6,0
			h0.2H40l0.6,0c0.1,0,0.1-0.1,0.1-0.1c0-0.1-0.1-0.1-0.1-0.1l-0.3,0c-0.1,0-0.1,0-0.1-0.2l0-1v-0.8l0-1.1v-0.1
			c0-0.1-0.1-0.2-0.1-0.2L39.9,65.3z"/>
		<path class="st3" d="M41.9,67.9c0-0.4,0.3-0.7,0.5-0.8c0.4,0.2,0.7,0.4,0.7,0.8c0,0.4-0.2,0.6-0.6,0.6
			C42.2,68.6,41.9,68.3,41.9,67.9z M41.5,66.1c0,0.4,0.3,0.7,0.6,0.8c-0.5,0.2-0.8,0.6-0.8,1l0,0c0,0.6,0.5,1,1.2,1
			c0.9,0,1.3-0.5,1.3-1.1c0-0.6-0.4-0.8-0.8-1c0.2-0.1,0.6-0.4,0.6-0.8c0-0.5-0.4-0.8-1-0.8C41.8,65.2,41.5,65.7,41.5,66.1z
			 M42.1,66c0-0.2,0.1-0.5,0.5-0.5c0.2,0,0.4,0.2,0.4,0.5c0,0.4-0.2,0.5-0.4,0.6C42.2,66.4,42.1,66.2,42.1,66z"/>
		<path class="st3" d="M45.1,67.9c0-0.4,0.3-0.7,0.5-0.8c0.4,0.2,0.7,0.4,0.7,0.8c0,0.4-0.2,0.6-0.6,0.6
			C45.4,68.6,45.1,68.3,45.1,67.9z M44.6,66.1c0,0.4,0.3,0.7,0.6,0.8c-0.5,0.2-0.8,0.6-0.8,1c0,0.6,0.5,1,1.2,1
			c0.8,0,1.3-0.5,1.3-1.1c0-0.6-0.5-0.8-0.8-1c0.2-0.1,0.6-0.4,0.6-0.8c0-0.5-0.4-0.8-1-0.8C45,65.2,44.6,65.7,44.6,66.1z M45.3,66
			c0-0.2,0.1-0.5,0.5-0.5c0.2,0,0.4,0.2,0.4,0.5c0,0.4-0.2,0.5-0.4,0.6C45.4,66.4,45.3,66.2,45.3,66z"/>
		<path class="st3" d="M49.5,65.3l-0.3,0h-1.1c-0.1,0-0.1,0.1-0.1,0.1l-0.1,1.2c0,0,0,0.1,0.1,0.2c0.3,0,1.1,0.3,1.1,1
			c0,0.6-0.4,0.8-0.7,0.8c-0.4,0-0.6-0.2-0.6-0.5c0-0.1-0.1-0.1-0.1-0.1c-0.1,0-0.1,0.1-0.1,0.1c0,0,0,0.5,0,0.5v0.1
			c0,0.1,0,0.2,0.1,0.2h0c0.1,0,0.3,0.1,0.5,0.1c1.1,0,1.6-0.7,1.6-1.4c0-0.8-0.8-1.2-1.5-1.3c0-0.1,0-0.4,0.1-0.4
			c0.1,0,0.8,0,0.8,0c0.3,0,0.3,0.1,0.3,0.2c0,0.1,0.1,0.1,0.1,0.1c0.1,0,0.1,0,0.1-0.1l0.1-0.6C49.7,65.4,49.7,65.2,49.5,65.3
			L49.5,65.3z"/>
	</g>
	<g>
		<path class="st3" d="M29.2,64.1c1.1,1.3,2.3,2.5,3.7,3.8l11.5-11.5L56,67.8c1.4-1.2,2.7-2.5,3.7-3.8L44.5,48.8L29.2,64.1z"/>
		<path class="st3" d="M44.5,45.5c-7.8,0-15.5,0.7-22.9,2.1c0.1,0.4,0.2,0.9,0.2,1.3c7.3-1.3,14.9-2.1,22.7-2.1
			c7.8,0,15.3,0.7,22.7,2.1c0.1-0.4,0.2-0.9,0.2-1.3C60,46.2,52.3,45.5,44.5,45.5z"/>
		<path class="st3" d="M53.8,33.7c0-5.1-4.2-9.3-9.3-9.3c-5.1,0-9.3,4.2-9.3,9.3c0,5.1,4.2,9.3,9.3,9.3C49.6,43,53.8,38.8,53.8,33.7
			z M44.5,38.4c-2.6,0-4.8-2.1-4.8-4.8c0-2.6,2.1-4.8,4.8-4.8c2.6,0,4.8,2.1,4.8,4.8C49.2,36.3,47.1,38.4,44.5,38.4z"/>
	</g>
</g>
<g>
	<g>
		<path class="st4" d="M150.3,80.8c-3.3-2.5-7.3-3.6-11.3-4.4c-3.5-0.7-8.5-0.4-9.9-4.4c-0.6-1.8,0.1-3.2,0.6-5
			c0-0.2,0.1-0.3,0.1-0.5c0-0.1,0-0.2,0.1-0.2c0.2-1.1,0.1-1.9,0.1-1.9c-1.4-0.5-1.5-1.9-1.5-2.2c0-0.5,0.2-1.1,0.3-1.4
			c0.1-0.1,0.1-0.2,0.1-0.2c-0.2-0.3-0.3-0.7-0.3-1.2c0-0.6,0.2-1.1,0.5-1.4c0.1-0.1,0.2-0.3,0.2-0.5c-0.1-1.4-0.2-2.3-0.5-3.2
			c-0.3-1-0.3-1.4-1.1-2c-0.5-0.4-1-0.9-1.5-1.4c-0.6-0.6-1.7-1.3-1.3-2.3c0.3-0.8,1.4-1.5,2.1-2c2.1-1.5,2.6-1.9,3.6-2.7
			c0.9-0.8,1.6-1.4,2.2-2.5c0.8-1.6,1.2-2.9,1.1-4.7c-0.1-1.4,0-4.8,0.3-7.2c0.3-2.4,1.1-4.7,2.1-6.9c1.4-2.7,3.3-5.2,5.6-7.4
			c0.3-0.3,0.6-0.6,1-0.8c8.7-7.2,20.9-9.4,31.8-6.5c8.6,2.3,16.8,7.8,20.6,16l0,0c0,0,0.1,0.1,0.2,0.4c0.3,0.7,0.6,1.4,0.8,2.1
			c0.7,2,1.1,4.2,1.2,6.3c0.3,2.9,0.3,6.3-0.5,10h7.5c0.2-1.1,0.4-2.2,0.4-2.4c0.3-2.4,0.4-4.7,0.3-7c-0.5-8-4-15.5-9.9-21.1
			c-0.6-0.6-1.3-1.2-1.9-1.7c-9.8-8-23.2-11.4-35.7-9.7c-3.1,0.4-6.2,1.2-9.1,2.3c-7.2,2.6-13,6.9-17,12.2c-2.1,2.9-3.7,6.1-4.5,9.4
			c-0.8,3.1-0.7,6.1-0.9,9.2c0,1.1,0,2.3-0.2,3.4c0,0,0,0.1,0,0.1c-0.4,2-2.1,3.2-2.1,3.2l-5.9,4.1c-1.8,1.3-3.3,3.1-1.3,5.4
			c1.7,1.9,2.5,2.5,4.7,4.3c0.4,0.3,0.5,0.8,0.6,1.3c0.2,0.7,0.2,1.4-0.1,2.1c-0.1,0.2-0.2,0.3-0.2,0.5c0,0.2-0.3,0.4-0.4,0.5
			c-0.3,0.5-0.3,1.1-0.2,1.6c0,0.3,0.1,0.6,0.3,0.9c-0.2,0.4-0.4,0.7-0.5,1.1c-0.2,1.1,0,2.2,0.8,3.2c-1.8,5.1-1.5,10.6,3.7,13.5
			c5.1,2.7,11.3,2.5,16.7,4.2c2.7,0.9,4.7,2.3,5.6,5.1l7.7,0c0,0,0-0.1,0.1-0.1c-0.5-1.8-1.2-3.2-2.2-4.7
			C152.6,82.7,151.6,81.7,150.3,80.8z"/>
		<path class="st4" d="M148.5,69.7c-1.9-0.4-4.1-0.5-5.9-1.4c-2.8-1.4-2.1-4-1.4-6.4l0.1-0.3l-0.1-0.2c-0.4-0.5-0.5-1.1-0.4-1.7
			c0-0.2,0.1-0.4,0.2-0.6l0.1-0.2l-0.1-0.3c-0.1-0.1-0.1-0.3-0.1-0.4c0-0.3,0-0.6,0.1-0.8l0-0.1c0.1-0.1,0.2-0.2,0.3-0.5
			c0-0.1,0.1-0.1,0.1-0.2c0.2-0.6,0.2-1.2,0-1.7l0-0.1c-0.1-0.3-0.2-0.7-0.5-1c-0.3-0.3-0.5-0.5-0.7-0.7l-0.1-0.1
			c-0.7-0.7-1.1-1.1-1.8-2c-0.3-0.4-0.5-0.9-0.4-1.3c0.1-0.5,0.4-1,1.1-1.6l3.4-2.7c0.1-0.1,1.1-1,1.4-2.5c0.1-0.6,0.1-1.2,0.1-1.8
			c0-0.2,0-0.4,0-0.5c0-0.4,0-0.7,0-1.1l0-0.2c0-1.7,0.1-3.8,0.4-5.4c0.5-2.2,1.4-4.3,2.5-6.1c2.2-3.5,5.5-6.3,9.5-8
			c1.7-0.7,3.4-1.2,5.1-1.5c7.1-1.2,14.6,1.2,20,6.4c3.8,3.6,6.1,8.4,6.6,13.6c0,0.4,0.1,0.8,0.1,1.3c0,1.1-0.1,2.2-0.2,3.6h1
			c0.1-1.3,0.2-2.5,0.2-3.6v0c0-0.5,0-0.9-0.1-1.4c-0.5-5.5-3-10.6-6.9-14.3c-5.6-5.3-13.4-7.8-20.8-6.6c-1.8,0.3-3.6,0.8-5.3,1.6
			c-4.2,1.8-7.6,4.7-9.9,8.4c-1.2,2-2.1,4.2-2.7,6.5c-0.4,1.7-0.4,4-0.5,5.7l0,0.5c0,0.3,0,0.5,0,0.8c0,0.2,0,0.4,0,0.5
			c0,0.5,0,1.1-0.1,1.7c-0.2,1.1-1,1.8-1,1.8l-3.4,2.7c-0.9,0.7-1.4,1.5-1.5,2.3c-0.1,0.7,0.1,1.4,0.6,2.1c0.7,1,1.2,1.5,2,2.2
			c0.2,0.2,0.5,0.5,0.8,0.8c0.1,0.1,0.1,0.3,0.2,0.5l0,0.1c0.1,0.3,0.1,0.7-0.1,1.1c0,0.1-0.1,0.1-0.1,0.2l0,0
			c-0.1,0.1-0.1,0.2-0.2,0.3c-0.2,0.5-0.2,1.2-0.2,1.4c0,0.2,0.1,0.3,0.1,0.5c-0.1,0.2-0.2,0.5-0.2,0.7c-0.1,0.8,0,1.6,0.4,2.4
			c-0.7,2.7-2,5.3,1.9,7.5c1.9,1,4.2,1.2,6.2,1.6c0.6,0.1,1.1,0.2,1.6,0.3V70C149.5,69.9,149,69.8,148.5,69.7z"/>
		<path class="st4" d="M194.4,37.5c0-0.6,0-1.1-0.1-1.6c-0.7-6.4-3.7-12.4-8.5-16.8c-6.9-6.3-16.4-9.2-25.5-7.7
			c-2.2,0.3-4.4,1-6.5,1.8c-5.2,2.1-9.4,5.5-12.2,9.8c-1.5,2.3-2.6,4.9-3.3,7.6c-0.5,2-0.5,4.7-0.6,6.6l-0.1,2.1
			c0,0.6,0,1.3-0.1,1.9c-0.2,1.2-1.1,2-1.1,2l-4.1,3.2c-1.2,0.9-1.8,1.9-1.9,2.9c-0.1,0.9,0.2,1.8,0.8,2.6c0.9,1.2,1.5,1.7,2.4,2.5
			c0.3,0.3,0.6,0.6,1,0.9c0,0.1,0.1,0.3,0.1,0.4l0,0.2c0.1,0.3,0.1,0.7,0,1.1c0,0.1-0.1,0.2-0.1,0.3l0,0c-0.1,0.1-0.2,0.2-0.2,0.4
			c-0.3,0.6-0.3,1.4-0.2,1.8c0,0.2,0.1,0.3,0.1,0.5c-0.1,0.2-0.2,0.5-0.2,0.8c-0.2,1,0,1.9,0.5,2.8c-0.7,2.4-1.9,5.9,3,8.8
			c2.2,1.4,4.8,1.8,7.2,2.3c1.1,0.2,3.6,0.5,5.3,0.9v-1.7c-1.8-0.4-4-0.7-5.1-0.9c-2.3-0.4-4.6-0.8-6.5-2c-3.6-2.2-3-4.4-2.1-7.3
			l0.1-0.4l-0.3-0.4c-0.4-0.6-0.5-1.2-0.4-1.8c0-0.2,0.1-0.4,0.2-0.6l0.2-0.4l-0.2-0.4c-0.1-0.1-0.1-0.3-0.1-0.4
			c0-0.3,0-0.6,0.1-0.7c0.1-0.1,0.3-0.3,0.4-0.6c0-0.1,0.1-0.2,0.1-0.3c0.2-0.8,0.2-1.4,0-2.1l0-0.2c-0.1-0.4-0.2-0.9-0.6-1.3
			c-0.4-0.4-0.7-0.7-1-0.9c-0.9-0.8-1.4-1.3-2.2-2.3c-0.4-0.5-0.5-0.9-0.5-1.3c0.1-0.5,0.5-1.1,1.2-1.7l4.1-3.2
			c0.1-0.1,1.4-1.2,1.8-3.1c0.1-0.7,0.2-1.4,0.2-2.2c0-0.2,0-0.4,0-0.6l0-1.5c0-2,0.1-4.4,0.5-6.2c0.6-2.5,1.6-4.9,3-7
			c2.6-4,6.6-7.2,11.4-9.2c2-0.8,4.1-1.4,6.1-1.7c8.6-1.3,17.6,1.4,24.1,7.3c4.5,4.1,7.3,9.7,8,15.6c0,0.5,0.1,1,0.1,1.4
			c0,1.7-0.1,3.5-0.4,5.3h1.7C194.3,41,194.4,39.2,194.4,37.5L194.4,37.5z"/>
	</g>
	<g>
		<g>
			<path class="st5" d="M201,88.6V47h9v17.2L226,47h11.2l-16,16.4l17.6,25.1h-11.3l-12.3-18.7l-5.2,5.3v13.4H201z"/>
			<path class="st5" d="M161.5,88.6V47h19.3c8.7,0,13.1,3.4,13.1,10.3c0,4-1.9,6.8-5.6,8.7c5,1.5,7.5,5,7.5,10.5
				c0,4-1.5,7.1-4.4,9.2c-2.6,1.9-5.9,2.9-10,2.9H161.5z M170.6,54.1v9.7h9.1c3.7,0,5.5-1.6,5.5-4.9c0-3.2-2.1-4.8-6.2-4.8H170.6z
				 M170.6,70v11.4h9.6c4.4,0,6.7-1.8,6.7-5.5c0-4-2.2-5.9-6.5-5.9H170.6z"/>
		</g>
		<g>
			<path class="st4" d="M257.8,54c-0.9,1.8-1.4,4.1-1.4,6.9H248c-0.2-5.3,1.1-9.7,3.9-13.1c2.8-3.4,6.7-5.1,11.7-5.1
				c4.1,0,7.6,1.2,10.4,3.7c2.9,2.6,4.4,6.1,4.4,10.3c0,3-0.7,5.6-2,7.8c-1.2,1.9-3.1,3.9-5.6,5.8c-2.2,1.5-4.4,3.1-6.6,4.6
				c-2.5,1.9-4.5,3.8-5.8,5.7h20.3v7.8h-31.5c0-4.7,1.4-8.7,4-12c1.7-2.1,4.9-4.8,9.6-8.2c3.3-2.4,5.3-3.8,5.9-4.4
				c2-2,3.1-4.2,3.1-6.6c0-2.1-0.6-3.7-1.7-5c-1.2-1.3-2.7-1.9-4.7-1.9C260.8,50.5,259,51.7,257.8,54z"/>
			<path class="st4" d="M304,43.6v45h-8.5V59.4h-10.6v-6.9c7.5,0.1,11.6-2.8,12.3-8.9H304z"/>
		</g>
		<g>
			<polygon class="st4" points="250.6,29.9 250.6,25.3 257.6,25.3 258.2,22.4 250.6,22.4 250.6,19.1 257.8,19.1 258.5,16.1 
				247.4,16.1 247.4,29.9 247.4,34.5 247.4,36.1 247.4,37.1 247.4,37.7 304,37.7 304,34.5 250.6,34.5 			"/>
			<path class="st4" d="M261.5,30.1c0.7,0.7,1.5,1.3,2.4,1.7c0.9,0.4,1.9,0.6,3,0.6c1.1,0,2.1-0.2,3-0.6c0.9-0.4,1.7-1,2.4-1.7
				c0.7-0.7,1.2-1.6,1.6-2.6c0.4-1,0.5-2.1,0.5-3.4c0-1.2-0.2-2.3-0.5-3.4c-0.4-1-0.9-1.9-1.6-2.6c-0.7-0.7-1.5-1.3-2.4-1.7
				c-1.8-0.8-4.1-0.8-6,0c-0.9,0.4-1.7,1-2.4,1.7c-0.7,0.7-1.2,1.6-1.6,2.6c-0.4,1-0.5,2.1-0.5,3.4c0,1.2,0.2,2.3,0.5,3.4
				C260.4,28.5,260.9,29.3,261.5,30.1z M263,22c0.2-0.6,0.5-1.2,0.8-1.7c0.3-0.5,0.8-0.9,1.3-1.1c0.5-0.3,1.1-0.4,1.8-0.4
				c0.7,0,1.3,0.1,1.8,0.4c0.5,0.3,0.9,0.7,1.3,1.1c0.3,0.5,0.6,1.1,0.8,1.7c0.2,0.7,0.3,1.4,0.3,2.1c0,0.7-0.1,1.4-0.3,2.1
				c-0.2,0.6-0.4,1.2-0.8,1.7c-0.3,0.5-0.8,0.8-1.3,1.1c-1,0.5-2.6,0.5-3.6,0c-0.5-0.3-0.9-0.7-1.3-1.1c-0.3-0.5-0.6-1-0.8-1.7
				c-0.2-0.7-0.3-1.4-0.3-2.1C262.7,23.4,262.8,22.7,263,22z"/>
			<path class="st4" d="M277.8,30.8c0.6,0.5,1.3,0.9,2,1.2c0.8,0.3,1.6,0.4,2.5,0.4c0.9,0,1.7-0.1,2.5-0.4c0.8-0.3,1.5-0.7,2-1.2
				c0.6-0.5,1-1.2,1.3-2c0.3-0.8,0.5-1.8,0.5-2.8v-9.8h-3.3v9.8c0,1.2-0.3,2.1-0.8,2.7c-0.6,0.6-1.3,0.9-2.2,0.9
				c-0.5,0-0.9-0.1-1.3-0.2c-0.4-0.1-0.7-0.4-0.9-0.6c-0.3-0.3-0.5-0.6-0.6-1.1c-0.2-0.4-0.2-1-0.2-1.6v-9.8H276v9.8
				c0,1.1,0.2,2,0.5,2.8C276.8,29.5,277.2,30.2,277.8,30.8z"/>
			<path class="st4" d="M294.1,31.3v-2.1v-2.8h2.6l3.5,5.7h3.7l-3.9-6.2c0.9-0.4,1.6-0.9,2-1.7c0.5-0.9,0.8-1.9,0.8-3
				c0-0.7-0.1-1.4-0.3-2c-0.2-0.6-0.6-1.2-1-1.7c-0.5-0.5-1-0.8-1.7-1.1c-0.7-0.2-1.5-0.4-2.5-0.4h-6.4v13.1v2.1v1h3.3V31.3z
				 M294.1,19.1h3.2c0.8,0,1.4,0.2,1.7,0.5c0.3,0.3,0.5,0.9,0.5,1.6c0,0.8-0.2,1.3-0.5,1.7c-0.3,0.3-0.9,0.5-1.7,0.5h-3.3V19.1z"/>
		</g>
	</g>
</g>
</svg>
